<svg viewBox="0 0 200 200" xmlns="http://www.w3.org/2000/svg">
  <path fill="#ffffff" d="M32.5,-53.5C46.5,-48.2,65.3,-48.4,69.4,-40.4C73.5,-32.4,62.9,-16.2,58.8,-2.3C54.8,11.5,57.3,23,52.6,30.1C48,37.1,36.2,39.8,26.3,48.2C16.3,56.7,8.2,70.9,0.2,70.6C-7.8,70.3,-15.6,55.4,-16.1,41.5C-16.6,27.6,-9.8,14.7,-12.4,7.9C-14.9,1.2,-26.8,0.6,-39.2,-7.2C-51.7,-14.9,-64.7,-29.9,-63.2,-38.6C-61.8,-47.3,-46,-49.8,-33.1,-55.8C-20.1,-61.8,-10.1,-71.2,-0.4,-70.5C9.2,-69.8,18.5,-58.9,32.5,-53.5Z" transform="translate(100 100)" />
</svg>
